<?xml version="1.0" encoding="UTF-8" standalone="no"?>
<!-- Created with Inkscape (http://www.inkscape.org/) -->

<svg
   width="450mm"
   height="100mm"
   viewBox="0 0 450 100"
   version="1.1"
   id="svg1"
   xml:space="preserve"
   inkscape:version="1.3.2 (091e20e, 2023-11-25, custom)"
   sodipodi:docname="Dossin SVG.svg"
   xmlns:inkscape="http://www.inkscape.org/namespaces/inkscape"
   xmlns:sodipodi="http://sodipodi.sourceforge.net/DTD/sodipodi-0.dtd"
   xmlns="http://www.w3.org/2000/svg"
   xmlns:svg="http://www.w3.org/2000/svg"><sodipodi:namedview
     id="namedview1"
     pagecolor="#505050"
     bordercolor="#eeeeee"
     borderopacity="1"
     inkscape:showpageshadow="0"
     inkscape:pageopacity="0"
     inkscape:pagecheckerboard="0"
     inkscape:deskcolor="#505050"
     inkscape:document-units="mm"
     showguides="false"
     inkscape:zoom="2.8284271"
     inkscape:cx="432.92613"
     inkscape:cy="162.81134"
     inkscape:window-width="1920"
     inkscape:window-height="1057"
     inkscape:window-x="-8"
     inkscape:window-y="-8"
     inkscape:window-maximized="1"
     inkscape:current-layer="layer2"
     inkscape:lockguides="false" /><defs
     id="defs1" /><g
     inkscape:groupmode="layer"
     id="layer2"
     inkscape:label="SVG"><path
       id="path5"
       style="fill:#16365f;fill-opacity:1;stroke-width:0.264583"
       d="m 175.90676,18.048925 c -1.11838,-0.008 -1.80454,0.0563 -1.80454,0.0563 l -7.98814,0.061 c 0,32.07477 0.18293,32.25798 0.18293,32.25798 l 11.76879,-0.061 c 0,0 16.64705,0.0606 16.09825,-17.01343 -0.44591,-13.87265 -13.41096,-15.26604 -18.25729,-15.30088 z m -1.25935,6.62544 c 8.03692,-0.046 12.44019,3.7578 12.13828,10.4438 -0.3036,6.72322 -6.03683,8.72038 -7.68326,8.78138 -1.46248,0.0541 -5.19813,-0.0305 -5.19813,-0.0305 0,0 0.015,-0.15282 -0.046,-19.17816 0.26678,-0.01 0.52985,-0.0151 0.7891,-0.0165 z" /><path
       id="path7"
       style="fill:#16365f;fill-opacity:1;stroke-width:0.264583"
       d="m 230.93183,17.777625 c -7.90134,0.13751 -12.69553,4.12387 -14.70453,11.26029 -2.75275,9.77842 1.6797,21.69625 13.66842,22.0338 10.94986,0.3083 16.65126,-5.84452 17.24752,-16.77313 0.5362,-9.82782 -7.19055,-15.73791 -12.63385,-16.34216 -1.25651,-0.13948 -2.4488,-0.19844 -3.57756,-0.1788 z m -0.004,6.44508 c 0.28939,-0.002 0.60594,0.007 0.95085,0.0289 1.20396,0.0769 7.84162,1.49381 7.67498,10.52081 -0.17631,9.55119 -6.01484,10.00373 -10.04641,9.57254 -3.10592,-0.33219 -4.75363,-3.15859 -5.43275,-4.48448 -0.39018,-0.76178 -1.8112,-8.36471 0.0429,-11.33988 1.85408,-2.97517 3.67126,-3.78906 4.91546,-4.09639 0.40392,-0.0998 1.0268,-0.19661 1.89497,-0.20154 z" /><path
       style="fill:#16365f;fill-opacity:1;stroke-width:0.264583"
       d="m 290.64964,20.069295 -0.12935,6.20906 c 0,0 -10.82274,-3.9669 -13.40985,-0.77614 -2.5871,3.19077 2.15593,4.82927 2.15593,4.82927 l 7.07143,1.81098 c 0,0 4.61367,1.50914 5.3898,5.08798 0.77614,3.57883 0.51742,10.60714 -5.47604,12.63371 -5.99347,2.02656 -11.55575,1.12108 -11.55575,1.12108 0,0 -5.17422,-1.33667 -5.99347,-1.98345 l -0.0218,-6.41419 c 0,0 14.80019,4.11438 15.8463,-0.95907 0.41697,-4.50954 -5.49022,-2.11664 -11.81446,-5.86411 -6.50042,-4.40294 -4.59709,-14.49708 2.19904,-16.85932 6.11624,-1.83145 12.0867,-1.13461 15.73824,1.1642 z"
       id="path8"
       sodipodi:nodetypes="ccsccsscccccccc" /><path
       style="fill:#16365f;fill-opacity:1;stroke-width:0.264583"
       d="m 335.83923,19.930075 -0.12935,6.20906 c 0,0 -10.82274,-3.9669 -13.40985,-0.77614 -2.5871,3.19077 2.15593,4.82927 2.15593,4.82927 l 7.07143,1.81098 c 0,0 4.61367,1.50914 5.3898,5.08798 0.77614,3.57883 0.51742,10.60714 -5.47604,12.63371 -5.99347,2.02656 -11.55575,1.12108 -11.55575,1.12108 0,0 -5.17422,-1.33667 -5.99347,-1.98345 l -0.0218,-6.41419 c 0,0 14.80019,4.11438 15.8463,-0.95907 0.41697,-4.50954 -5.49022,-2.11664 -11.81446,-5.86411 -6.50042,-4.40294 -4.59709,-14.49708 2.19904,-16.85932 6.11624,-1.83145 12.0867,-1.13461 15.73824,1.1642 z"
       id="path8-6"
       sodipodi:nodetypes="ccsccsscccccccc" /><path
       style="fill:#16365f;fill-opacity:1;stroke-width:0.264583"
       d="m 360.27027,18.471185 7.13451,-0.061 0.18293,32.07481 -7.19548,-0.061 z"
       id="path9" /><path
       style="fill:#16365f;fill-opacity:1;stroke-width:0.264583"
       d="m 391.71933,50.338455 7.5026,0.17247 v -19.57578 l 13.62544,19.31707 7.33014,0.17248 0.25871,-32.08014 -7.41637,0.0862 -0.12936,19.23084 -13.97037,-19.53266 -7.15766,0.12935 z"
       id="path10" /><path
       style="fill:#16365f;fill-opacity:1;stroke-width:0.264583"
       d="m 166.41892,64.327185 3.78438,0.0357 -0.0647,12.28199 6.76863,0.12195 v 3.29285 l -10.42736,-0.12195 z"
       id="path11"
       sodipodi:nodetypes="ccccccc" /><path
       id="path7-1"
       style="fill:#16365f;fill-opacity:1;stroke-width:0.125696"
       d="m 202.75361,64.352055 c -3.80154,0.0645 -6.10816,1.93448 -7.07474,5.28214 -1.32442,4.58701 0.80815,10.1776 6.57624,10.33594 5.26827,0.14462 8.01137,-2.74163 8.29825,-7.86819 0.25798,-4.61018 -3.45957,-7.38257 -6.07849,-7.66602 -0.60454,-0.0654 -1.17818,-0.0931 -1.72126,-0.0839 z m -0.002,3.02335 c 0.13924,-9.4e-4 0.29154,0.003 0.45748,0.0136 0.57926,0.0361 3.77282,0.70074 3.69264,4.93525 -0.0848,4.48042 -2.8939,4.6927 -4.8336,4.49043 -1.49434,-0.15583 -2.28709,-1.48168 -2.61384,-2.10364 -0.18772,-0.35735 -0.87141,-3.92384 0.0206,-5.31948 0.89205,-1.39564 1.76634,-1.77743 2.36496,-1.9216 0.19434,-0.0468 0.49402,-0.0922 0.91172,-0.0945 z" /><path
       style="fill:#16365f;fill-opacity:1;stroke-width:0.264583"
       d="m 239.98544,76.748515 0.0431,-2.2206 -3.51415,-0.1078 -0.0431,-3.03985 6.81272,0.0216 c 0,0 0.30182,7.9338 0.10779,7.95536 -0.19403,0.0216 -5.0233,1.96189 -9.24891,0.21559 -4.22561,-1.7463 -4.20405,-6.40309 -4.29029,-8.06315 -0.0862,-1.66006 2.39308,-9.65854 12.97866,-6.6618 -0.0215,-0.0431 -0.12935,2.93205 -0.12935,2.93205 0,0 -9.03332,-2.5871 -9.03332,4.0747 0,6.6618 5.41137,5.23889 6.31685,4.89394 z"
       id="path12"
       sodipodi:nodetypes="cccccsssccssc" /><path
       style="fill:#16365f;fill-opacity:1;stroke-width:0.264583"
       d="m 263.80193,64.327185 3.51009,0.004 -0.004,15.63724 -3.50247,-0.004 z"
       id="path13"
       sodipodi:nodetypes="ccccc" /><path
       style="fill:#16365f;fill-opacity:1;stroke-width:0.126567"
       d="m 298.32976,65.320805 -0.0619,2.96741 c 0,0 -5.18209,-1.89584 -6.42083,-0.37093 -1.23875,1.52492 1.03229,2.30798 1.03229,2.30798 l 3.3859,0.8655 c 0,0 2.2091,0.72124 2.58071,2.43162 0.37163,1.71038 0.24775,5.06931 -2.622,6.03784 -2.86976,0.96852 -5.53306,0.53578 -5.53306,0.53578 0,0 -2.47749,-0.63882 -2.86976,-0.94792 l -0.0105,-3.06544 c 0,0 7.08654,1.96632 7.58744,-0.45836 0.19965,-2.15516 -2.6288,-1.01156 -5.65693,-2.80254 -3.1125,-2.10423 -2.20116,-6.92837 1.05293,-8.05732 2.92854,-0.87528 5.78728,-0.54225 7.5357,0.55638 z"
       id="path8-6-0"
       sodipodi:nodetypes="ccsccsscccccccc" /><path
       style="fill:#16365f;fill-opacity:1;stroke-width:0.264583"
       d="m 317.82908,64.357665 12.95798,-0.061 -0.0915,3.20138 -4.66487,-0.0305 0.0305,12.5921 -3.56726,-0.061 0.0305,-12.47015 -4.69536,-0.0305 z"
       id="path14" /><path
       id="path16"
       style="fill:#16365f;fill-opacity:1;stroke-width:0.264583"
       d="m 410.5405,64.352045 -6.20892,15.54427 3.64319,0.0217 1.57406,-3.60081 h 4.82917 l 1.48776,3.6866 3.79408,0.0434 -6.12262,-15.69516 z m 1.48777,5.56193 1.16427,3.06131 -2.41484,-0.006 z" /><path
       style="fill:#c0c0be;fill-opacity:1;stroke-width:0.264583"
       d="m 115.6208,37.090325 -0.39754,25.432368 23.40948,-0.783434 c 0,0 -17.85328,-0.421514 -23.04498,-26.567163 z"
       id="path27"
       sodipodi:nodetypes="ccccc" /><path
       style="fill:#16365f;fill-opacity:1;stroke-width:0.264583"
       d="m 350.30804,64.400005 3.51009,0.004 -0.004,15.63724 -3.50247,-0.004 z"
       id="path13-9"
       sodipodi:nodetypes="ccccc" /><path
       style="fill:#16365f;fill-opacity:1;stroke-width:0.264583"
       d="m 386.00613,64.869375 v 2.9105 c 0,0 -7.86912,-2.2206 -8.27874,4.48432 -0.10781,6.87739 8.23561,4.11781 8.23561,4.11781 l 0.0217,3.27701 c 0,0 -10.90897,3.77286 -12.20252,-6.66181 -0.60367,-9.85257 9.9388,-9.98193 12.22408,-8.12783 z"
       id="path17"
       sodipodi:nodetypes="cccccccc" /><path
       style="fill:#16365f;fill-opacity:1;stroke-width:0.264583"
       d="m 20.492682,66.782515 c 22.196254,3.78068 46.708199,7.31882 61.466552,7.19549 21.891356,-0.18293 42.929016,-3.96362 60.612856,-9.02485 3.59774,1.03664 -18.13937,14.46344 -61.832431,14.75685 -33.599274,-0.60978 -61.527527,-8.23213 -60.246977,-12.92749 z"
       id="path18"
       sodipodi:nodetypes="csccc" /><path
       id="path20"
       style="fill:#16365f;fill-opacity:1;stroke-width:0.264583"
       d="m 62.084249,29.996005 -27.318229,0.061 0.182935,5.18315 c 0,0 -6.321972,0.35656 -5.670972,1.46348 30.372839,-2.15096 31.525725,2.62206 31.525725,2.62206 0,0 -0.04929,-0.26015 0,17.80615 -8.814929,-6.89521 -9.634555,6.09782 -9.634555,6.09782 0,0 -25.915729,-0.30491 -26.525512,0.42684 -0.609788,0.73174 1.158585,4.63435 1.158585,4.63435 l 8.049121,1.15858 1.402499,-1.76837 c 0,0 8.152193,-0.32327 15.48846,0.12196 0.609788,2.25622 2.256193,4.02456 2.256193,4.02456 0,0 4.329443,0.36587 5.792928,0.79272 1.463488,0.42685 3.475757,-5.73195 3.475757,-5.73195 l 3.902604,-0.97565 -0.06098,-4.81728 -2.561084,0.30489 0.182935,-23.23321 5.549015,1.64641 1.463476,-4.32945 z m -5.065323,29.57959 c 0.709115,-0.0207 1.207648,0.56666 0.90382,0.67799 -2.286864,0.96645 -2.061402,3.00539 -2.192114,3.80235 0.313898,5.32763 2.491717,3.33521 2.231905,4.47311 -1.857308,1.59137 -3.627752,-1.03673 -3.506246,-4.36252 0.119492,-3.27061 1.723768,-4.27068 1.805058,-4.32738 0.261304,-0.18225 0.521205,-0.25665 0.757577,-0.26355 z m 1.112076,2.59829 c 0.0983,0.003 0.206041,0.0361 0.31471,0.11627 0.03381,0.025 0.701166,0.46489 0.750858,1.90376 0.05053,1.46316 -0.685906,2.61937 -1.458308,1.91926 -0.108046,-0.50061 0.797567,0.376 0.928108,-1.96784 -0.05436,-0.35062 0.03947,-1.24758 -0.911572,-1.67276 -0.126353,-0.049 0.0813,-0.30781 0.376204,-0.29869 z"
       sodipodi:nodetypes="cccccccscccccsccccccccscccsssscscccs" /><path
       id="path20-9"
       style="fill:#16365f;fill-opacity:1;stroke-width:0.315776"
       d="m 113.73909,24.434175 -32.891801,0.0735 -0.02754,6.18078 c 0,0 -7.569213,0.73427 -6.799198,2.06728 35.925549,-2.59028 38.203889,2.91368 38.203889,2.91368 0,0 0.16242,-0.1466 0,21.44288 -10.42646,-8.3035 -11.39593,7.34323 -11.39593,7.34323 0,0 -30.276846,0.2122 -31.374862,0.51402 -4.774405,1.31237 5.078583,10.49638 5.078583,10.49638 l 3.656538,-0.84696 3.814824,-4.80288 c 0,0 12.855738,0.017 18.320037,0.14687 0.99935,4.29242 2.66866,4.84655 2.66866,4.84655 0,0 6.32827,-1.54286 8.0593,-1.02883 1.73104,0.51402 2.90388,-4.91921 2.90388,-4.91921 6.38137,-1.27143 27.93026,-6.24781 24.60064,-7.18178 l -23.086,0.57287 0.21638,-27.97836 c 6.92013,2.31152 16.65769,6.26915 20.504,6.84848 1.33441,-0.67224 -9.14808,-7.37721 -22.4514,-16.6885 z m -4.9223,36.4374 c -2.70494,1.16383 -2.43826,3.61922 -2.59287,4.57893 0.37128,6.41576 2.42982,5.0728 2.63994,5.38672 -2.19686,1.91638 -4.29098,-1.24848 -4.14726,-5.25352 0.14134,-3.93861 1.61138,-5.03733 2.13506,-5.21121 0.80477,-0.26722 1.50704,-0.24826 1.96513,0.49908 z m 0.24633,2.3125 c 0.11627,0.003 0.24371,0.0435 0.37224,0.14002 0.04,0.0301 0.82936,0.55984 0.88813,2.29258 0.0598,1.762 -0.8113,3.15435 -1.72491,2.31125 -0.1278,-0.60285 0.94338,0.4528 1.09778,-2.36974 -0.0643,-0.42224 0.0467,-1.50239 -1.07822,-2.01441 -0.14946,-0.0591 0.0962,-0.37067 0.44498,-0.3597 z"
       sodipodi:nodetypes="cccccccscccccscccccccccsscccscccc" /><path
       style="fill:#16365f;fill-opacity:1;stroke-width:0.264583"
       d="m 70.377431,53.976045 2.652574,0.0305 v 7.8815 l -2.63733,-0.0153 z"
       id="path21"
       sodipodi:nodetypes="ccccc" /><path
       style="fill:#16365f;fill-opacity:1;stroke-width:0.264583"
       d="m 74.828877,54.021775 15.137966,-0.0305 -0.01524,7.80528 H 74.828881 Z"
       id="path22"
       sodipodi:nodetypes="ccccc" /><path
       style="fill:#16365f;fill-opacity:1;stroke-width:0.264583"
       d="m 92.695641,53.991285 h 2.530617 l -0.01525,7.95773 -2.545861,-0.0305 z"
       id="path23"
       sodipodi:nodetypes="ccccc" /><path
       style="fill:#16365f;fill-opacity:1;stroke-width:0.267135"
       d="m 83.767235,35.139455 -1.754391,11.90044 -11.371059,-0.0219 c 0,0 -0.974671,-0.0875 -0.888028,-1.46568 0.05527,-0.87906 1.368523,-8.73329 2.816505,-9.23938 1.051137,-0.4661 6.041267,-1.32765 11.196972,-1.17349 z"
       id="path24"
       sodipodi:nodetypes="cccsccc" /><path
       style="fill:#16365f;fill-opacity:1;stroke-width:0.264583"
       d="m 84.608044,35.182315 -1.595382,11.74978 13.77635,0.0647 c 0,0 0.754573,-0.1078 0.81925,-0.84081 0.06468,-0.73301 0.536059,-10.14637 -0.349698,-10.8326 -1.184655,-1.08015 -12.623793,-0.30413 -12.623793,-0.30413 z"
       id="path25"
       sodipodi:nodetypes="cccsccc" /><path
       style="fill:#16365f;fill-opacity:1;stroke-width:0.264583"
       d="m 100.11582,36.037945 c 0.13032,-0.53557 7.08883,0.75472 7.14446,2.06382 0.10239,2.86428 0.0601,8.78048 0.0601,8.78048 l -7.18262,-0.004 c 0,0 0.0673,-7.47491 -0.022,-10.84024 z"
       id="path26"
       sodipodi:nodetypes="ccccc" /><path
       style="fill:#16365f;fill-opacity:1;stroke-width:0.217911"
       d="m 26.542094,54.270705 2.163976,0.0253 v 6.5533 l -2.151539,-0.0127 z"
       id="path21-8"
       sodipodi:nodetypes="ccccc" /><path
       style="fill:#16365f;fill-opacity:1;stroke-width:0.217911"
       d="m 30.173595,54.308725 12.349589,-0.0253 -0.01244,6.48994 H 30.173595 Z"
       id="path22-5"
       sodipodi:nodetypes="ccccc" /><path
       style="fill:#16365f;fill-opacity:1;stroke-width:0.217911"
       d="m 44.749344,54.283365 h 2.064484 l -0.01244,6.6167 -2.07692,-0.0253 z"
       id="path23-2"
       sodipodi:nodetypes="ccccc" /><path
       style="fill:#16365f;fill-opacity:1;stroke-width:0.220013"
       d="m 37.465529,38.608455 -1.431237,9.89498 -9.276537,-0.0182 c 0,0 -0.795139,-0.0728 -0.724455,-1.21869 0.04509,-0.73092 1.116444,-7.26155 2.297711,-7.68236 0.85752,-0.38755 4.92848,-1.10391 9.134518,-0.97573 z"
       id="path24-8"
       sodipodi:nodetypes="cccsccc" /><path
       style="fill:#16365f;fill-opacity:1;stroke-width:0.217911"
       d="m 38.151463,38.644085 -1.301517,9.76971 11.23878,0.0538 c 0,0 0.615582,-0.0896 0.668347,-0.69911 0.05276,-0.60948 0.437318,-8.43651 -0.285285,-9.00709 -0.966445,-0.89812 -10.298521,-0.25287 -10.298521,-0.25287 z"
       id="path25-6"
       sodipodi:nodetypes="cccsccc" /><path
       style="fill:#16365f;fill-opacity:1;stroke-width:0.217911"
       d="m 50.802747,39.355535 c 0.106315,-0.44532 5.783081,0.62753 5.828459,1.71601 0.08354,2.3816 0.04905,7.3008 0.04905,7.3008 l -5.859591,-0.004 c 0,0 0.05494,-6.21524 -0.01792,-9.01345 z"
       id="path26-5"
       sodipodi:nodetypes="ccccc" /></g></svg>
